<?xml version="1.0" encoding="UTF-8" standalone="no"?>
<svg
   xmlns:dc="http://purl.org/dc/elements/1.1/"
   xmlns:cc="http://creativecommons.org/ns#"
   xmlns:rdf="http://www.w3.org/1999/02/22-rdf-syntax-ns#"
   xmlns:svg="http://www.w3.org/2000/svg"
   xmlns="http://www.w3.org/2000/svg"
   xmlns:sodipodi="http://sodipodi.sourceforge.net/DTD/sodipodi-0.dtd"
   xmlns:inkscape="http://www.inkscape.org/namespaces/inkscape"
   version="1.1"
   id="Your_Icon"
   x="0px"
   y="0px"
   width="25"
   height="25"
   viewBox="0 0 25 25"
   enable-background="new 0 0 100 100"
   xml:space="preserve"
   inkscape:version="0.48.4 r9939"
   sodipodi:docname="arrow.svg"><metadata
     id="metadata11"><rdf:RDF><cc:Work
         rdf:about=""><dc:format>image/svg+xml</dc:format><dc:type
           rdf:resource="http://purl.org/dc/dcmitype/StillImage" /></cc:Work></rdf:RDF></metadata><defs
     id="defs9" /><sodipodi:namedview
     pagecolor="#ffffff"
     bordercolor="#666666"
     borderopacity="1"
     objecttolerance="10"
     gridtolerance="10"
     guidetolerance="10"
     inkscape:pageopacity="0"
     inkscape:pageshadow="2"
     inkscape:window-width="1920"
     inkscape:window-height="1019"
     id="namedview7"
     showgrid="true"
     inkscape:zoom="18.88"
     inkscape:cx="25.046269"
     inkscape:cy="22.457627"
     inkscape:window-x="0"
     inkscape:window-y="26"
     inkscape:window-maximized="1"
     inkscape:current-layer="Your_Icon"><inkscape:grid
       type="xygrid"
       id="grid2988"
       empspacing="5"
       visible="true"
       enabled="true"
       snapvisiblegridlinesonly="true" /></sodipodi:namedview><path
     d="m 13.499938,24 c -0.64,0 -1.2795,-0.24425 -1.76775,-0.73225 -0.97625,-0.97625 -0.97625,-2.55925 0,-3.53575 l 7.232,-7.232 -7.232,-7.232 c -0.97625,-0.97625 -0.97625,-2.55925 0,-3.53575 0.97625,-0.97624997 2.55925,-0.97624997 3.53575,0 l 9,9 c 0.468499,0.469 0.732,1.10475 0.732,1.76775 0,0.66325 -0.263501,1.29925 -0.732251,1.768 l -9.000249,8.99975 C 14.779688,23.75575 14.139688,24 13.499938,24 z"
     id="path3"
     inkscape:connector-curvature="0" /><path
     d="M 19.971285,15.059572 H 2.4230339 c -1.3675,0 -2.47600001,-1.11925 -2.47600001,-2.50025 0,-1.3805 1.10850001,-2.5 2.47600001,-2.5 H 19.971285 c 1.367,0 2.47575,1.1195 2.47575,2.5 0,1.381 -1.10875,2.50025 -2.47575,2.50025 z"
     id="path5"
     inkscape:connector-curvature="0" /></svg>