<?xml version="1.0" encoding="UTF-8" standalone="no"?>
<svg
   xmlns:dc="http://purl.org/dc/elements/1.1/"
   xmlns:cc="http://creativecommons.org/ns#"
   xmlns:rdf="http://www.w3.org/1999/02/22-rdf-syntax-ns#"
   xmlns:svg="http://www.w3.org/2000/svg"
   xmlns="http://www.w3.org/2000/svg"
   xmlns:sodipodi="http://sodipodi.sourceforge.net/DTD/sodipodi-0.dtd"
   xmlns:inkscape="http://www.inkscape.org/namespaces/inkscape"
   version="1.1"
   id="Your_Icon"
   x="0px"
   y="0px"
   width="12"
   height="12"
   viewBox="0 0 12 12"
   enable-background="new 0 0 100 100"
   xml:space="preserve"
   inkscape:version="0.48.4 r9939"
   sodipodi:docname="arrow.svg"><metadata
     id="metadata11"><rdf:RDF><cc:Work
         rdf:about=""><dc:format>image/svg+xml</dc:format><dc:type
           rdf:resource="http://purl.org/dc/dcmitype/StillImage" /></cc:Work></rdf:RDF></metadata><defs
     id="defs9" /><sodipodi:namedview
     pagecolor="#ffffff"
     bordercolor="#666666"
     borderopacity="1"
     objecttolerance="10"
     gridtolerance="10"
     guidetolerance="10"
     inkscape:pageopacity="0"
     inkscape:pageshadow="2"
     inkscape:window-width="1920"
     inkscape:window-height="1019"
     id="namedview7"
     showgrid="true"
     inkscape:zoom="70.75"
     inkscape:cx="6"
     inkscape:cy="6"
     inkscape:window-x="0"
     inkscape:window-y="26"
     inkscape:window-maximized="1"
     inkscape:current-layer="Your_Icon"><inkscape:grid
       type="xygrid"
       id="grid2988"
       empspacing="5"
       visible="true"
       enabled="true"
       snapvisiblegridlinesonly="true" /></sodipodi:namedview><path
     d="m 6.4916566,11.5 c -0.3065513,0 -0.6128631,-0.116992 -0.8467282,-0.350738 -0.4676105,-0.46761 -0.4676105,-1.225846 0,-1.6935758 l 3.4640295,-3.464029 -3.4640295,-3.46403 c -0.4676105,-0.46761 -0.4676105,-1.225846 0,-1.69357598 0.4676104,-0.467611 1.2258459,-0.467611 1.6935761,0 L 11.649382,5.1449282 C 11.873786,5.3695732 12,5.6740892 12,5.9916572 c 0,0.317687 -0.126214,0.622323 -0.350738,0.846847 L 7.338265,11.149262 C 7.1046394,11.383008 6.7980881,11.5 6.4916566,11.5 z"
     id="path3"
     inkscape:connector-curvature="0" /><path
     d="M 9.5913437,7.2176572 H 1.1859703 C 0.5309564,7.2176572 0,6.6815512 0,6.0200712 0,5.3588302 0.5309564,4.8226052 1.1859703,4.8226052 h 8.4053734 c 0.6547743,0 1.1858503,0.536225 1.1858503,1.197466 0,0.66148 -0.531076,1.197586 -1.1858503,1.197586 z"
     id="path5"
     inkscape:connector-curvature="0" /></svg>