<?xml version="1.0" encoding="UTF-8" standalone="no"?>
<!-- Created with Inkscape (http://www.inkscape.org/) -->

<svg
   xmlns:dc="http://purl.org/dc/elements/1.1/"
   xmlns:cc="http://creativecommons.org/ns#"
   xmlns:rdf="http://www.w3.org/1999/02/22-rdf-syntax-ns#"
   xmlns:svg="http://www.w3.org/2000/svg"
   xmlns="http://www.w3.org/2000/svg"
   xmlns:sodipodi="http://sodipodi.sourceforge.net/DTD/sodipodi-0.dtd"
   xmlns:inkscape="http://www.inkscape.org/namespaces/inkscape"
   width="40"
   height="52"
   id="svg2"
   version="1.1"
   inkscape:version="0.48.4 r9939"
   sodipodi:docname="frame.svg"
   inkscape:export-filename="/home/thane/projects/flowcharter/qml/elements/borders/frame.png"
   inkscape:export-xdpi="90"
   inkscape:export-ydpi="90">
  <defs
     id="defs4" />
  <sodipodi:namedview
     id="base"
     pagecolor="#ffffff"
     bordercolor="#666666"
     borderopacity="1.0"
     inkscape:pageopacity="0.0"
     inkscape:pageshadow="2"
     inkscape:zoom="23.089756"
     inkscape:cx="12.247644"
     inkscape:cy="36.39422"
     inkscape:document-units="px"
     inkscape:current-layer="layer1"
     showgrid="true"
     inkscape:snap-page="true"
     inkscape:object-nodes="true"
     inkscape:window-width="1920"
     inkscape:window-height="1019"
     inkscape:window-x="0"
     inkscape:window-y="26"
     inkscape:window-maximized="1"
     fit-margin-top="0"
     fit-margin-right="0"
     fit-margin-bottom="0"
     fit-margin-left="0">
    <inkscape:grid
       type="xygrid"
       id="grid2985"
       empspacing="5"
       visible="true"
       enabled="true"
       snapvisiblegridlinesonly="true"
       originx="-240px"
       originy="-445px" />
  </sodipodi:namedview>
  <metadata
     id="metadata7">
    <rdf:RDF>
      <cc:Work
         rdf:about="">
        <dc:format>image/svg+xml</dc:format>
        <dc:type
           rdf:resource="http://purl.org/dc/dcmitype/StillImage" />
        <dc:title />
      </cc:Work>
    </rdf:RDF>
  </metadata>
  <g
     inkscape:label="Layer 1"
     inkscape:groupmode="layer"
     id="layer1"
     transform="translate(-240,-555.36218)">
    <path
       style="fill:#782828;fill-opacity:1;fill-rule:evenodd;stroke:none"
       d="M 10,0 0,11 0,52 40,52 40,0 z m 2,3 25,0 0,46 -25,0 z"
       transform="translate(240,555.36218)"
       id="rect2987"
       inkscape:connector-curvature="0"
       sodipodi:nodetypes="ccccccccccc" />
    <path
       style="fill:#441616;fill-opacity:1;stroke:none"
       d="m 241,606.36218 38,0 0,-50 1,-1 0,52 -40,0 z"
       id="rect2991-1"
       inkscape:connector-curvature="0"
       sodipodi:nodetypes="ccccccc" />
    <path
       style="fill:#a53737;fill-opacity:1;stroke:none"
       d="M 11,1 1,12 1,51 39,51 39,1 z m 11,2 15,0 0,46 -25,0 0,-16 10,-11 z"
       transform="translate(240,555.36218)"
       id="rect2989"
       inkscape:connector-curvature="0"
       sodipodi:nodetypes="ccccccccccccc" />
    <path
       style="fill:#782828;fill-opacity:1;fill-rule:evenodd;stroke:none"
       d="m 277,604.36218 0,-46 1,-1 0,48 -27,0 1,-1 z"
       id="rect2987-7"
       inkscape:connector-curvature="0"
       sodipodi:nodetypes="ccccccc" />
    <path
       transform="translate(240,555.36218)"
       style="fill:#d27878;fill-opacity:1;stroke:none"
       d="M 1,12 11,1 21,1 13,2 11.102359,1.979245 2,12 2,14 1,22 z"
       id="rect3759"
       inkscape:connector-curvature="0"
       sodipodi:nodetypes="ccccccccc" />
    <path
       style="fill:#d27878;fill-opacity:1;stroke:none"
       d="m 241,596.36218 1,8 0,1 1,0 8,1 -10,0 z"
       id="rect3759-0"
       inkscape:connector-curvature="0"
       sodipodi:nodetypes="ccccccc" />
    <path
       style="fill:#451515;fill-opacity:1;stroke:none"
       d="m 261,557.36218 17,0 -1,1 -15,0 0,19 -10,11 0,16 -1,1 0,-18 10,-11 z"
       id="rect2991"
       inkscape:connector-curvature="0"
       sodipodi:nodetypes="ccccccccccc" />
  </g>
</svg>
