<?xml version="1.0" encoding="UTF-8" standalone="no"?>
<!-- Created with Inkscape (http://www.inkscape.org/) -->

<svg
   xmlns:dc="http://purl.org/dc/elements/1.1/"
   xmlns:cc="http://creativecommons.org/ns#"
   xmlns:rdf="http://www.w3.org/1999/02/22-rdf-syntax-ns#"
   xmlns:svg="http://www.w3.org/2000/svg"
   xmlns="http://www.w3.org/2000/svg"
   xmlns:sodipodi="http://sodipodi.sourceforge.net/DTD/sodipodi-0.dtd"
   xmlns:inkscape="http://www.inkscape.org/namespaces/inkscape"
   width="40"
   height="52"
   id="svg2"
   version="1.1"
   inkscape:version="0.48.4 r9939"
   sodipodi:docname="frame.svg">
  <defs
     id="defs4" />
  <sodipodi:namedview
     id="base"
     pagecolor="#ffffff"
     bordercolor="#666666"
     borderopacity="1.0"
     inkscape:pageopacity="0.0"
     inkscape:pageshadow="2"
     inkscape:zoom="16"
     inkscape:cx="13.875"
     inkscape:cy="26.606602"
     inkscape:document-units="px"
     inkscape:current-layer="layer1"
     showgrid="true"
     inkscape:snap-page="true"
     inkscape:object-nodes="true"
     inkscape:window-width="1920"
     inkscape:window-height="1019"
     inkscape:window-x="0"
     inkscape:window-y="26"
     inkscape:window-maximized="1"
     fit-margin-top="0"
     fit-margin-right="0"
     fit-margin-bottom="0"
     fit-margin-left="0">
    <inkscape:grid
       type="xygrid"
       id="grid2985"
       empspacing="5"
       visible="true"
       enabled="true"
       snapvisiblegridlinesonly="true"
       originx="-240px"
       originy="-445px" />
  </sodipodi:namedview>
  <metadata
     id="metadata7">
    <rdf:RDF>
      <cc:Work
         rdf:about="">
        <dc:format>image/svg+xml</dc:format>
        <dc:type
           rdf:resource="http://purl.org/dc/dcmitype/StillImage" />
        <dc:title />
      </cc:Work>
    </rdf:RDF>
  </metadata>
  <g
     inkscape:label="Layer 1"
     inkscape:groupmode="layer"
     id="layer1"
     transform="translate(-240,-555.36218)">
    <path
       style="fill:#424242;fill-opacity:1;fill-rule:evenodd;stroke:none"
       d="m 240,566.36218 10,-11 30,0 0,52 -40,0 z"
       id="rect2987"
       inkscape:connector-curvature="0"
       sodipodi:nodetypes="cccccc" />
    <path
       style="fill:#2f2f2f;fill-opacity:1;stroke:none"
       d="m 241,576.36218 20,-20 19,0 0,51 -39,0 z"
       id="rect2991-1"
       inkscape:connector-curvature="0"
       sodipodi:nodetypes="cccccc" />
    <path
       style="fill:#686868;fill-opacity:1;stroke:none"
       d="m 241,567.36218 10,-11 28,0 0,50 -38,0 z"
       id="rect2989"
       inkscape:connector-curvature="0"
       sodipodi:nodetypes="cccccc" />
    <path
       style="fill:#2f2f2f;fill-opacity:1;stroke:none"
       d="m 261,557.36218 17,0 0,48 -27,0 0,-18 10,-11 z"
       id="rect2991"
       inkscape:connector-curvature="0"
       sodipodi:nodetypes="ccccccc" />
    <path
       style="fill:#424242;fill-opacity:1;fill-rule:evenodd;stroke:none"
       d="m 262,577.36218 0,-19 16,0 0,47 -26,0 0,-17 z"
       id="rect2987-7"
       inkscape:connector-curvature="0"
       sodipodi:nodetypes="ccccccc" />
    <path
       style="fill:#555555;fill-opacity:1;stroke:none"
       d="m 262,577.36218 0,-19 15,0 0,46 -25,0 0,-16 z"
       id="rect3761"
       inkscape:connector-curvature="0"
       sodipodi:nodetypes="ccccccc" />
    <path
       style="fill:#686868;fill-opacity:1;stroke:none"
       d="m 264,578.36218 0,-18 13,0 0,44 -23,0 0,-15 z"
       id="rect3763"
       inkscape:connector-curvature="0"
       sodipodi:nodetypes="ccccccc" />
    <path
       style="fill:#2f2f2f;fill-opacity:1"
       inkscape:connector-curvature="0"
       d="m 258.32552,572.88297 c 0.29872,0 0.57664,-0.24226 0.61729,-0.53826 0,0 0.0571,-0.416 0.0571,-0.91072 0,-0.49473 -0.0571,-0.91074 -0.0571,-0.91074 -0.0408,-0.29615 -0.31857,-0.53824 -0.61729,-0.53824 h -1.54369 c -0.29889,0 -0.60929,-0.19057 -0.68961,-0.42336 -0.0804,-0.2328 -0.19089,-0.9797 0.0204,-1.19089 l 1.09122,-1.09122 c 0.2112,-0.21136 0.22752,-0.572 0.0362,-0.8016 l -1.28385,-1.28418 c -0.2296,-0.19153 -0.59009,-0.17521 -0.80161,0.0362 l -1.09121,1.09121 c -0.21121,0.21136 -0.56336,0.29648 -0.78209,0.18928 -0.21889,-0.10716 -0.83216,-0.55937 -0.83216,-0.85826 v -1.54369 c 0,-0.29888 -0.24226,-0.57664 -0.53826,-0.61744 0,0 -0.416,-0.0573 -0.91072,-0.0573 -0.49473,0 -0.91074,0.0573 -0.91074,0.0573 -0.29615,0.0406 -0.5384,0.31856 -0.5384,0.61744 v 1.54369 c 0,0.29889 -0.19041,0.60914 -0.42337,0.68961 -0.23295,0.0804 -0.97968,0.19089 -1.19104,-0.0204 l -1.09122,-1.09122 c -0.21136,-0.21136 -0.572,-0.22767 -0.80145,-0.0363 l -1.28401,1.28401 c -0.19153,0.2296 -0.17521,0.59025 0.0362,0.80161 l 1.09105,1.09121 c 0.21136,0.21136 0.29664,0.56336 0.18928,0.78209 -0.1074,0.21872 -0.55937,0.83216 -0.85825,0.83216 h -1.54354 c -0.29888,0 -0.57664,0.24225 -0.61744,0.53825 0,0 -0.0573,0.41601 -0.0573,0.91073 0,0.49489 0.0573,0.91074 0.0573,0.91074 0.0406,0.29615 0.31856,0.53823 0.61744,0.53823 h 1.54369 c 0.29889,0 0.60914,0.19041 0.68946,0.42337 0.0803,0.2328 0.19088,0.97953 -0.0205,1.19089 l -1.09105,1.09105 c -0.21136,0.21137 -0.22768,0.57202 -0.0362,0.80162 l 1.28385,1.28417 c 0.2296,0.19136 0.59009,0.1752 0.80145,-0.0362 l 1.09122,-1.09121 c 0.21136,-0.2112 0.56336,-0.29648 0.78225,-0.18928 0.21888,0.10716 0.83216,0.55936 0.83216,0.85825 v 1.5437 c 0,0.29872 0.24225,0.57664 0.5384,0.61728 0,0 0.41585,0.0571 0.91074,0.0571 0.49489,0 0.91073,-0.0571 0.91073,-0.0571 0.29616,-0.0408 0.53825,-0.31856 0.53825,-0.61728 v -1.5437 c 0,-0.29889 0.1904,-0.60929 0.42336,-0.68961 0.23296,-0.0804 0.97969,-0.19073 1.19105,0.0205 l 1.09105,1.0912 c 0.21136,0.21121 0.57201,0.22753 0.80161,0.0362 l 1.28386,-1.28368 c 0.19136,-0.22961 0.1752,-0.59009 -0.0363,-0.80162 l -1.09105,-1.09105 c -0.21136,-0.21136 -0.29664,-0.56336 -0.18928,-0.78225 0.10717,-0.21888 0.55937,-0.83216 0.85825,-0.83216 h 1.54386 z M 251,574.36218 c -1.6173,0 -2.92835,-1.3109 -2.92835,-2.92836 0,-1.61714 1.31105,-2.92834 2.92835,-2.92834 1.6173,0 2.92835,1.31105 2.92835,2.92834 0,1.61731 -1.31105,2.92836 -2.92835,2.92836 z"
       id="path3818" />
  </g>
</svg>
