<?xml version="1.0" encoding="UTF-8" standalone="no"?>
<svg
   xmlns:dc="http://purl.org/dc/elements/1.1/"
   xmlns:cc="http://creativecommons.org/ns#"
   xmlns:rdf="http://www.w3.org/1999/02/22-rdf-syntax-ns#"
   xmlns:svg="http://www.w3.org/2000/svg"
   xmlns="http://www.w3.org/2000/svg"
   xmlns:sodipodi="http://sodipodi.sourceforge.net/DTD/sodipodi-0.dtd"
   xmlns:inkscape="http://www.inkscape.org/namespaces/inkscape"
   width="32.344307mm"
   height="9.2744732mm"
   viewBox="0 0 32.344307 9.2744732"
   version="1.1"
   id="svg8"
   inkscape:version="1.0.1 (0767f8302a, 2020-10-17)"
   sodipodi:docname="logo.svg">
  <defs
     id="defs2" />
  <sodipodi:namedview
     id="base"
     pagecolor="#ffffff"
     bordercolor="#666666"
     borderopacity="1.0"
     inkscape:pageopacity="0.0"
     inkscape:pageshadow="2"
     inkscape:zoom="4.3799998"
     inkscape:cx="52.568123"
     inkscape:cy="5.7985369"
     inkscape:document-units="mm"
     inkscape:current-layer="layer1"
     inkscape:document-rotation="0"
     showgrid="false"
     fit-margin-top="0"
     fit-margin-left="0"
     fit-margin-right="0"
     fit-margin-bottom="0"
     inkscape:window-width="2488"
     inkscape:window-height="1376"
     inkscape:window-x="1512"
     inkscape:window-y="1467"
     inkscape:window-maximized="1" />
  <metadata
     id="metadata5">
    <rdf:RDF>
      <cc:Work
         rdf:about="">
        <dc:format>image/svg+xml</dc:format>
        <dc:type
           rdf:resource="http://purl.org/dc/dcmitype/StillImage" />
        <dc:title></dc:title>
      </cc:Work>
    </rdf:RDF>
  </metadata>
  <g
     inkscape:label="Layer 1"
     inkscape:groupmode="layer"
     id="layer1"
     transform="translate(-73.350168,-123.43337)">
    <g
       id="g922"
       transform="translate(-4.2732312,-3.1434876)">
      <g
         aria-label="VNIDE"
         id="text835"
         style="font-size:10.5833px;line-height:1.25;font-family:'Comic Neue Angular';-inkscape-font-specification:'Comic Neue Angular';fill:#ffffff;fill-opacity:1;stroke:#000000;stroke-width:1.5;stroke-opacity:1">
        <path
           d="m 80.095186,133.02052 3.206739,-5.43982 0.888998,0.40217 -3.989904,6.75215 -1.015997,0.15874 -0.751414,-6.93206 1.079496,-0.37041 z"
           style="fill:#ffffff;fill-opacity:1;stroke:#000000;stroke-width:1.5;stroke-opacity:1"
           id="path837" />
        <path
           d="m 89.338706,127.79237 1.05833,-0.1905 -1.502829,7.09081 -1.037163,0.20108 -2.14841,-5.20698 -1.05833,5.01649 -1.05833,0.20108 1.481662,-7.02731 0.984247,-0.26459 2.201326,5.30224 z"
           style="fill:#ffffff;fill-opacity:1;stroke:#000000;stroke-width:1.5;stroke-opacity:1"
           id="path839" />
        <path
           d="m 95.070886,128.70253 h -1.12183 l -1.079496,5.11174 h 1.312329 l -0.412749,1.04774 h -3.534822 l 0.402165,-1.04774 h 1.18533 l 1.079497,-5.11174 h -1.365246 l 0.402165,-1.04774 h 3.545406 z"
           style="fill:#ffffff;fill-opacity:1;stroke:#000000;stroke-width:1.5;stroke-opacity:1"
           id="path841" />
        <path
           d="m 95.281393,134.78793 1.513412,-7.12256 h 0.497415 c 2.87866,0 4.08515,1.38641 4.08515,3.22791 0,2.44474 -1.894407,4.1169 -4.497899,4.1169 -0.380999,0 -1.09008,-0.0741 -1.598078,-0.22225 z m 3.704155,-1.22766 c 0.772581,-0.43392 1.344082,-1.397 1.344082,-2.59291 0,-1.49224 -1.312332,-2.27541 -2.730495,-2.27541 l -1.111246,5.2599 c 0.158749,0.0212 0.391582,0.0317 0.603248,0.0317 0.518582,0 1.269996,-0.0635 1.894411,-0.42333 z"
           style="fill:#ffffff;fill-opacity:1;stroke:#000000;stroke-width:1.5;stroke-opacity:1"
           id="path843" />
        <path
           d="m 103.3414,133.81427 h 4.33916 l -0.59267,1.04774 h -5.01648 l 1.52399,-7.20722 h 5.28107 l -0.40217,1.04774 h -4.0534 l -0.40217,1.905 h 3.87349 l -0.52916,1.03716 h -3.56657 z"
           style="fill:#ffffff;fill-opacity:1;stroke:#000000;stroke-width:1.5;stroke-opacity:1"
           id="path845" />
      </g>
      <g
         aria-label="VNIDE"
         id="text835-3"
         style="font-size:10.5833px;line-height:1.25;font-family:'Comic Neue Angular';-inkscape-font-specification:'Comic Neue Angular';fill:#ffffff;fill-opacity:1;stroke:none;stroke-width:1.5;stroke-opacity:1">
        <path
           d="m 80.095186,133.02052 3.206739,-5.43982 0.888998,0.40217 -3.989904,6.75215 -1.015997,0.15874 -0.751414,-6.93206 1.079496,-0.37041 z"
           style="fill:#ffffff;fill-opacity:1;stroke:none;stroke-width:1.5;stroke-opacity:1"
           id="path837-6" />
        <path
           d="m 89.338706,127.79237 1.05833,-0.1905 -1.502829,7.09081 -1.037163,0.20108 -2.14841,-5.20698 -1.05833,5.01649 -1.05833,0.20108 1.481662,-7.02731 0.984247,-0.26459 2.201326,5.30224 z"
           style="fill:#ffffff;fill-opacity:1;stroke:none;stroke-width:1.5;stroke-opacity:1"
           id="path839-7" />
        <path
           d="m 95.070886,128.70253 h -1.12183 l -1.079496,5.11174 h 1.312329 l -0.412749,1.04774 h -3.534822 l 0.402165,-1.04774 h 1.18533 l 1.079497,-5.11174 h -1.365246 l 0.402165,-1.04774 h 3.545406 z"
           style="fill:#ffffff;fill-opacity:1;stroke:none;stroke-width:1.5;stroke-opacity:1"
           id="path841-5" />
        <path
           d="m 95.281393,134.78793 1.513412,-7.12256 h 0.497415 c 2.87866,0 4.08515,1.38641 4.08515,3.22791 0,2.44474 -1.894407,4.1169 -4.497899,4.1169 -0.380999,0 -1.09008,-0.0741 -1.598078,-0.22225 z m 3.704155,-1.22766 c 0.772581,-0.43392 1.344082,-1.397 1.344082,-2.59291 0,-1.49224 -1.312332,-2.27541 -2.730495,-2.27541 l -1.111246,5.2599 c 0.158749,0.0212 0.391582,0.0317 0.603248,0.0317 0.518582,0 1.269996,-0.0635 1.894411,-0.42333 z"
           style="fill:#ffffff;fill-opacity:1;stroke:none;stroke-width:1.5;stroke-opacity:1"
           id="path843-3" />
        <path
           d="m 103.3414,133.81427 h 4.33916 l -0.59267,1.04774 h -5.01648 l 1.52399,-7.20722 h 5.28107 l -0.40217,1.04774 h -4.0534 l -0.40217,1.905 h 3.87349 l -0.52916,1.03716 h -3.56657 z"
           style="fill:#ffffff;fill-opacity:1;stroke:none;stroke-width:1.5;stroke-opacity:1"
           id="path845-5" />
      </g>
    </g>
  </g>
</svg>
