<?xml version="1.0" encoding="iso-8859-1"?>
<!-- Generator: Adobe Illustrator 19.0.0, SVG Export Plug-In . SVG Version: 6.00 Build 0)  -->
<svg version="1.1" id="Capa_1" xmlns="http://www.w3.org/2000/svg" xmlns:xlink="http://www.w3.org/1999/xlink" x="0px" y="0px"
	 viewBox="0 0 512 512" style="enable-background:new 0 0 512 512;" xml:space="preserve">
<path d="M215.996,128c0,1.6,0.416,3.104,0.48,4.704l-172.8,209.12c-5.28,6.336-4.8,15.648,1.024,21.504l48,48
	C95.804,414.4,99.9,416,103.996,416c3.424,0,6.848-1.088,9.728-3.328l102.272-78.432V480h-48c-8.832,0-16,7.168-16,16
	s7.168,16,16,16h128c8.832,0,16-7.168,16-16s-7.168-16-16-16h-48V309.696l72.992-56c7.488,1.344,15.136,2.304,23.008,2.304
	c29.536,0,56.416-10.464,78.08-27.296L243.292,49.92C226.46,71.616,215.996,98.496,215.996,128z"/>
<path d="M343.996,0c-29.504,0-56.384,10.464-78.08,27.296L444.7,206.08c16.832-21.696,27.296-48.576,27.296-78.08
	C471.996,57.408,414.588,0,343.996,0z"/>
<g>
</g>
<g>
</g>
<g>
</g>
<g>
</g>
<g>
</g>
<g>
</g>
<g>
</g>
<g>
</g>
<g>
</g>
<g>
</g>
<g>
</g>
<g>
</g>
<g>
</g>
<g>
</g>
<g>
</g>
</svg>
