<?xml version="1.0" encoding="UTF-8" standalone="no"?>
<svg
   xmlns:dc="http://purl.org/dc/elements/1.1/"
   xmlns:cc="http://creativecommons.org/ns#"
   xmlns:rdf="http://www.w3.org/1999/02/22-rdf-syntax-ns#"
   xmlns:svg="http://www.w3.org/2000/svg"
   xmlns="http://www.w3.org/2000/svg"
   xmlns:sodipodi="http://sodipodi.sourceforge.net/DTD/sodipodi-0.dtd"
   xmlns:inkscape="http://www.inkscape.org/namespaces/inkscape"
   version="1.1"
   id="Your_Icon"
   x="0px"
   y="0px"
   width="10"
   height="10"
   viewBox="0 0 10 10"
   enable-background="new 0 0 100 100"
   xml:space="preserve"
   inkscape:version="0.48.4 r9939"
   sodipodi:docname="arrow_highlighted.svg"><metadata
     id="metadata11"><rdf:RDF><cc:Work
         rdf:about=""><dc:format>image/svg+xml</dc:format><dc:type
           rdf:resource="http://purl.org/dc/dcmitype/StillImage" /><dc:title></dc:title></cc:Work></rdf:RDF></metadata><defs
     id="defs9" /><sodipodi:namedview
     pagecolor="#ffffff"
     bordercolor="#666666"
     borderopacity="1"
     objecttolerance="10"
     gridtolerance="10"
     guidetolerance="10"
     inkscape:pageopacity="0"
     inkscape:pageshadow="2"
     inkscape:window-width="1920"
     inkscape:window-height="1019"
     id="namedview7"
     showgrid="true"
     inkscape:zoom="70.75"
     inkscape:cx="3.4840989"
     inkscape:cy="6"
     inkscape:window-x="0"
     inkscape:window-y="26"
     inkscape:window-maximized="1"
     inkscape:current-layer="Your_Icon"
     inkscape:snap-page="true"
     inkscape:object-nodes="true"
     inkscape:snap-smooth-nodes="true"><inkscape:grid
       type="xygrid"
       id="grid2988"
       empspacing="5"
       visible="true"
       enabled="true"
       snapvisiblegridlinesonly="true" /></sodipodi:namedview><path
     d="M 5.40625 0.375 C 5.150853 0.375 4.9135877 0.49266205 4.71875 0.6875 C 4.3290746 1.0772749 4.3290746 1.704075 4.71875 2.09375 L 6.625 4 L 1 4 C 0.45415513 4 0 4.4489658 0 5 C -1.4802974e-16 5.5512333 0.45415513 6 1 6 L 6.5625 6 L 4.71875 7.875 C 4.3290746 8.2647748 4.3290746 8.8915743 4.71875 9.28125 C 4.9136376 9.476042 5.1507906 9.5625 5.40625 9.5625 C 5.6616096 9.5625 5.930312 9.476039 6.125 9.28125 L 9.71875 5.6875 C 9.9058534 5.5003966 10 5.2334892 10 4.96875 C 10 4.70411 9.9057534 4.4684542 9.71875 4.28125 L 6.125 0.6875 C 5.9301124 0.49266205 5.661647 0.375 5.40625 0.375 z "
     id="path3"
     style="fill:#ff7e00;fill-opacity:1" /></svg>