<?xml version="1.0" encoding="UTF-8" standalone="no"?>
<svg
   xmlns:dc="http://purl.org/dc/elements/1.1/"
   xmlns:cc="http://creativecommons.org/ns#"
   xmlns:rdf="http://www.w3.org/1999/02/22-rdf-syntax-ns#"
   xmlns:svg="http://www.w3.org/2000/svg"
   xmlns="http://www.w3.org/2000/svg"
   xmlns:sodipodi="http://sodipodi.sourceforge.net/DTD/sodipodi-0.dtd"
   xmlns:inkscape="http://www.inkscape.org/namespaces/inkscape"
   version="1.1"
   id="Your_Icon"
   x="0px"
   y="0px"
   width="10"
   height="10"
   viewBox="0 0 10 10"
   enable-background="new 0 0 100 100"
   xml:space="preserve"
   inkscape:version="0.48.4 r9939"
   sodipodi:docname="arrow.svg"><metadata
     id="metadata11"><rdf:RDF><cc:Work
         rdf:about=""><dc:format>image/svg+xml</dc:format><dc:type
           rdf:resource="http://purl.org/dc/dcmitype/StillImage" /></cc:Work></rdf:RDF></metadata><defs
     id="defs9" /><sodipodi:namedview
     pagecolor="#ffffff"
     bordercolor="#666666"
     borderopacity="1"
     objecttolerance="10"
     gridtolerance="10"
     guidetolerance="10"
     inkscape:pageopacity="0"
     inkscape:pageshadow="2"
     inkscape:window-width="1920"
     inkscape:window-height="1019"
     id="namedview7"
     showgrid="true"
     inkscape:zoom="70.75"
     inkscape:cx="6"
     inkscape:cy="6"
     inkscape:window-x="0"
     inkscape:window-y="26"
     inkscape:window-maximized="1"
     inkscape:current-layer="Your_Icon"
     inkscape:snap-page="true"
     inkscape:object-nodes="true"
     inkscape:snap-smooth-nodes="true"><inkscape:grid
       type="xygrid"
       id="grid2988"
       empspacing="5"
       visible="true"
       enabled="true"
       snapvisiblegridlinesonly="true" /></sodipodi:namedview><path
     d="m 5.4097138,9.566608 c -0.2554594,0 -0.5107192,-0.09749 -0.7056068,-0.292282 -0.3896754,-0.3896757 -0.3896754,-1.0215387 0,-1.4113135 L 7.5907983,4.9763216 4.704107,2.08963 c -0.3896754,-0.389675 -0.3896754,-1.0215384 0,-1.41131334 0.3896753,-0.3896759 1.0215382,-0.3896759 1.4113134,0 L 9.7078183,4.2707141 c 0.1870034,0.1872042 0.2921812,0.4409675 0.2921812,0.7056075 0,0.2647392 -0.1051778,0.5186025 -0.2922812,0.7057059 L 6.1152208,9.274326 C 5.9205328,9.469115 5.6650734,9.566608 5.4097138,9.566608 z"
     id="path3"
     inkscape:connector-curvature="0" /><path
     d="M 7.9927864,5.9979883 H 0.98830854 C 0.44246367,5.9979883 0,5.5512333 0,5 0,4.4489658 0.44246367,4.0021116 0.98830854,4.0021116 H 7.9927864 c 0.5456453,0 0.9882086,0.4468542 0.9882086,0.9978884 0,0.5512333 -0.4425633,0.9979883 -0.9882086,0.9979883 z"
     id="path5"
     inkscape:connector-curvature="0" /></svg>