<?xml version="1.0" encoding="UTF-8" standalone="no"?>
<svg
   xmlns:dc="http://purl.org/dc/elements/1.1/"
   xmlns:cc="http://creativecommons.org/ns#"
   xmlns:rdf="http://www.w3.org/1999/02/22-rdf-syntax-ns#"
   xmlns:svg="http://www.w3.org/2000/svg"
   xmlns="http://www.w3.org/2000/svg"
   xmlns:sodipodi="http://sodipodi.sourceforge.net/DTD/sodipodi-0.dtd"
   xmlns:inkscape="http://www.inkscape.org/namespaces/inkscape"
   version="1.1"
   x="0px"
   y="0px"
   width="100px"
   height="100px"
   viewBox="-1 -1 100 100"
   overflow="visible"
   enable-background="new -1 -1 100 100"
   xml:space="preserve"
   id="svg2"
   inkscape:version="0.48.4 r9939"
   sodipodi:docname="choice.svg"><metadata
     id="metadata10"><rdf:RDF><cc:Work
         rdf:about=""><dc:format>image/svg+xml</dc:format><dc:type
           rdf:resource="http://purl.org/dc/dcmitype/StillImage" /><dc:title></dc:title></cc:Work></rdf:RDF></metadata><sodipodi:namedview
     pagecolor="#ffffff"
     bordercolor="#666666"
     borderopacity="1"
     objecttolerance="10"
     gridtolerance="10"
     guidetolerance="10"
     inkscape:pageopacity="0"
     inkscape:pageshadow="2"
     inkscape:window-width="783"
     inkscape:window-height="641"
     id="namedview8"
     showgrid="false"
     inkscape:zoom="2.36"
     inkscape:cx="50"
     inkscape:cy="66.949153"
     inkscape:window-x="41"
     inkscape:window-y="49"
     inkscape:window-maximized="0"
     inkscape:current-layer="svg2" /><defs
     id="defs4" /><path
     d="M90.419,33.246H64.754V7.581C64.754,3.395,61.359,0,57.173,0H40.827c-4.188,0-7.581,3.395-7.581,7.581v25.665H7.581  C3.395,33.246,0,36.64,0,40.827v16.347c0,4.186,3.395,7.58,7.581,7.58h25.665v25.665c0,4.187,3.394,7.581,7.581,7.581h16.346  c4.187,0,7.581-3.395,7.581-7.581V64.754h25.665c4.187,0,7.581-3.395,7.581-7.58V40.827C98,36.64,94.605,33.246,90.419,33.246z   M21.969,53.869c0,1.738-1.23,2.448-2.735,1.58L10.8,50.58c-1.505-0.869-1.505-2.291,0-3.16l8.434-4.869  c1.505-0.869,2.735-0.158,2.735,1.579V53.869z M55.449,78.767l-4.87,8.434c-0.868,1.504-2.29,1.504-3.158,0l-4.87-8.434  c-0.868-1.505-0.157-2.735,1.58-2.735h9.738C55.606,76.031,56.317,77.262,55.449,78.767z M53.869,21.97h-9.738  c-1.737,0-2.448-1.23-1.58-2.735l4.87-8.434c0.868-1.504,2.29-1.504,3.158,0l4.87,8.434C56.317,20.74,55.606,21.97,53.869,21.97z   M87.199,50.58l-8.434,4.869c-1.505,0.868-2.735,0.158-2.735-1.58V44.13c0-1.737,1.23-2.448,2.735-1.579l8.434,4.869  C88.703,48.289,88.703,49.711,87.199,50.58z"
     id="path6"
     style="fill:#451515;fill-opacity:1" /></svg>