<?xml version="1.0" encoding="UTF-8" standalone="no"?>
<svg
   xmlns:dc="http://purl.org/dc/elements/1.1/"
   xmlns:cc="http://creativecommons.org/ns#"
   xmlns:rdf="http://www.w3.org/1999/02/22-rdf-syntax-ns#"
   xmlns:svg="http://www.w3.org/2000/svg"
   xmlns="http://www.w3.org/2000/svg"
   xmlns:sodipodi="http://sodipodi.sourceforge.net/DTD/sodipodi-0.dtd"
   xmlns:inkscape="http://www.inkscape.org/namespaces/inkscape"
   version="1.1"
   x="0px"
   y="0px"
   width="100px"
   height="100px"
   viewBox="0 0 100 100"
   enable-background="new 0 0 100 100"
   xml:space="preserve"
   id="svg2"
   inkscape:version="0.48.4 r9939"
   sodipodi:docname="delete.svg"><metadata
     id="metadata122"><rdf:RDF><cc:Work
         rdf:about=""><dc:format>image/svg+xml</dc:format><dc:type
           rdf:resource="http://purl.org/dc/dcmitype/StillImage" /><dc:title /></cc:Work></rdf:RDF></metadata><defs
     id="defs120" /><sodipodi:namedview
     pagecolor="#ffffff"
     bordercolor="#666666"
     borderopacity="1"
     objecttolerance="10"
     gridtolerance="10"
     guidetolerance="10"
     inkscape:pageopacity="0"
     inkscape:pageshadow="2"
     inkscape:window-width="1920"
     inkscape:window-height="1019"
     id="namedview118"
     showgrid="true"
     inkscape:zoom="6.675088"
     inkscape:cx="-21.722774"
     inkscape:cy="50"
     inkscape:window-x="0"
     inkscape:window-y="26"
     inkscape:window-maximized="1"
     inkscape:current-layer="svg2"
     inkscape:snap-page="true"><inkscape:grid
       type="xygrid"
       id="grid3012" /></sodipodi:namedview><g
     id="Your_Icon"
     style="fill:#c40233;fill-opacity:1" /><path
     inkscape:connector-curvature="0"
     d="M 50,-3.000001e-8 C 22.385714,-3.000001e-8 0,22.385714 0,50 0,77.614286 22.385714,100 50,100 77.614286,100 100,77.614286 100,50 100,22.385714 77.614286,-3.000001e-8 50,-3.000001e-8 z M 81.787143,69.358571 l -12.431429,12.43 -19.36,-19.357142 -19.35,19.351428 L 18.212857,69.351429 37.564286,49.998571 18.212857,30.647143 30.645714,18.214286 49.995714,37.565714 69.352857,18.211429 81.787143,30.644286 62.428571,50 81.787143,69.358571 z"
     id="path116"
     style="fill:#c40233;fill-opacity:1" /></svg>