<?xml version="1.0" encoding="UTF-8" standalone="no"?>
<svg
   xmlns:dc="http://purl.org/dc/elements/1.1/"
   xmlns:cc="http://creativecommons.org/ns#"
   xmlns:rdf="http://www.w3.org/1999/02/22-rdf-syntax-ns#"
   xmlns:svg="http://www.w3.org/2000/svg"
   xmlns="http://www.w3.org/2000/svg"
   xmlns:sodipodi="http://sodipodi.sourceforge.net/DTD/sodipodi-0.dtd"
   xmlns:inkscape="http://www.inkscape.org/namespaces/inkscape"
   version="1.1"
   id="Settings_1_"
   x="0px"
   y="0px"
   width="16"
   height="16"
   viewBox="0 0 16 16"
   enable-background="new 0 0 100 100"
   xml:space="preserve"
   inkscape:version="0.48.4 r9939"
   sodipodi:docname="script.svg"><metadata
     id="metadata9"><rdf:RDF><cc:Work
         rdf:about=""><dc:format>image/svg+xml</dc:format><dc:type
           rdf:resource="http://purl.org/dc/dcmitype/StillImage" /></cc:Work></rdf:RDF></metadata><defs
     id="defs7" /><sodipodi:namedview
     pagecolor="#ffffff"
     bordercolor="#666666"
     borderopacity="1"
     objecttolerance="10"
     gridtolerance="10"
     guidetolerance="10"
     inkscape:pageopacity="0"
     inkscape:pageshadow="2"
     inkscape:window-width="1920"
     inkscape:window-height="1019"
     id="namedview5"
     showgrid="true"
     inkscape:zoom="53.0625"
     inkscape:cx="4.6454653"
     inkscape:cy="8"
     inkscape:window-x="0"
     inkscape:window-y="26"
     inkscape:window-maximized="1"
     inkscape:current-layer="Settings_1_"><inkscape:grid
       type="xygrid"
       id="grid2986"
       empspacing="5"
       visible="true"
       enabled="true"
       snapvisiblegridlinesonly="true" /></sodipodi:namedview><path
     clip-rule="evenodd"
     d="M 14.202599,6.8105413 C 12.823721,6.9755817 12.479484,5.1530812 13.270696,4.550268 13.443288,4.3776545 13.556885,4.167748 13.609938,3.9464405 13.290819,3.3990623 12.511805,2.6954356 12.099318,2.4000436 11.868621,2.4500988 11.649444,2.5642078 11.469953,2.7431715 10.795389,3.5910308 9.110817,2.918701 9.2131301,1.8038147 9.2135602,1.5423533 9.1002331,1.2555563 9.0008976,1.0968 8.5617689,0.99996006 7.5762118,0.97476246 6.8796531,1.0889904 6.761697,1.234393 6.6627054,1.5363601 6.6628449,1.7994169 6.9337038,3.0779108 5.11576,3.5241177 4.3912748,2.7200579 4.207872,2.5359245 3.9228078,2.3948693 3.7453173,2.3707749 3.3415921,2.6207867 2.534543,3.4280589 2.2335641,3.8501876 2.3204381,4.0693351 2.3955668,4.3307749 2.584994,4.5205844 3.60658,5.251741 3.0824458,7.0115247 1.6413091,6.7890426 1.3581777,6.7887021 1.086171,6.8826586 0.8847221,7.036019 0.80820076,7.4984219 0.81587917,8.662174 0.90613517,9.1084264 0.99131878,9.2140215 1.365054,9.3397715 1.6372644,9.3401075 3.272981,9.1966456 3.7196059,10.794575 2.5738111,11.611811 c -0.1893743,0.188874 -0.3333061,0.419377 -0.352854,0.667 0.2464648,0.390401 1.0305684,1.184253 1.4828928,1.491463 0.233299,-0.03371 0.4806599,-0.161731 0.670569,-0.351331 0.7506793,-0.882123 2.5150409,-0.47245 2.2682586,0.94403 -2.807e-4,0.248899 0.099194,0.484203 0.2028396,0.7133 0.5926545,0.08451 1.6405407,0.146403 2.1694223,-0.0086 0.1304169,-0.205794 0.177899,-0.456775 0.178195,-0.700147 -0.066419,-1.130917 1.5807686,-1.905033 2.2602346,-0.947908 0.166734,0.16746 0.376473,0.312696 0.591081,0.369569 0.516414,-0.308547 1.352649,-1.119948 1.593644,-1.554645 -0.05423,-0.256229 -0.205612,-0.442044 -0.378553,-0.615858 -0.994309,-0.915276 -0.272833,-2.4919155 0.938841,-2.2571215 0.248727,1.8e-4 0.496044,-0.08808 0.694946,-0.197954 0.06223,-0.5155285 0.149563,-1.4301212 0.01836,-2.1362852 -0.242943,-0.16337 -0.446296,-0.216251 -0.70909,-0.216764 z M 11,8 C 10.9969,10.070765 10.07053,11.003256 8,11 5.92967,10.9964 4.9967803,10.070664 5,8 5.00322,5.9293345 5.9297061,4.9965358 8,5 c 2.07043,0.00343 3.003284,0.929026 3,3 z"
     id="path3"
     inkscape:connector-curvature="0"
     style="fill-rule:evenodd;fill:#451515;fill-opacity:1"
     sodipodi:nodetypes="ccccccccccccccccccccccccccccccccccccscc" /></svg>