<?xml version="1.0" encoding="UTF-8" standalone="no"?>
<svg
   xmlns:dc="http://purl.org/dc/elements/1.1/"
   xmlns:cc="http://creativecommons.org/ns#"
   xmlns:rdf="http://www.w3.org/1999/02/22-rdf-syntax-ns#"
   xmlns:svg="http://www.w3.org/2000/svg"
   xmlns="http://www.w3.org/2000/svg"
   xmlns:sodipodi="http://sodipodi.sourceforge.net/DTD/sodipodi-0.dtd"
   xmlns:inkscape="http://www.inkscape.org/namespaces/inkscape"
   version="1.1"
   id="Layer_36"
   x="0px"
   y="0px"
   width="100px"
   height="100px"
   viewBox="0 0 100 100"
   enable-background="new 0 0 100 100"
   xml:space="preserve"
   inkscape:version="0.48.4 r9939"
   sodipodi:docname="question.svg"><metadata
     id="metadata9"><rdf:RDF><cc:Work
         rdf:about=""><dc:format>image/svg+xml</dc:format><dc:type
           rdf:resource="http://purl.org/dc/dcmitype/StillImage" /></cc:Work></rdf:RDF></metadata><defs
     id="defs7" /><sodipodi:namedview
     pagecolor="#ffffff"
     bordercolor="#666666"
     borderopacity="1"
     objecttolerance="10"
     gridtolerance="10"
     guidetolerance="10"
     inkscape:pageopacity="0"
     inkscape:pageshadow="2"
     inkscape:window-width="1920"
     inkscape:window-height="1019"
     id="namedview5"
     showgrid="true"
     inkscape:zoom="8.49"
     inkscape:cx="29.034158"
     inkscape:cy="59.42285"
     inkscape:window-x="0"
     inkscape:window-y="26"
     inkscape:window-maximized="1"
     inkscape:current-layer="Layer_36"><inkscape:grid
       type="xygrid"
       id="grid2986" /></sodipodi:namedview><path
     d="M 50.435972,2.4444444e-6 C 26.420926,2.4444444e-6 6.956,19.466274 6.956,43.479972 c 0,14.883835 7.52204,28.015759 18.92629,35.854246 l -0.06329,0.04713 v 18.935716 c 0,3.786606 3.71389,0 3.71389,0 L 41.762599,86.088702 c 2.80225,0.56826 5.705494,0.867203 8.674719,0.867203 24.015046,0 43.479971,-19.464926 43.479971,-43.475933 C 93.915989,19.466274 74.451017,2.4444444e-6 50.435972,2.4444444e-6 z M 48.770243,73.964026 c -4.773654,0 -8.012198,-3.509208 -8.012198,-8.19264 0,-4.861181 3.330111,-8.191292 8.012198,-8.191292 4.857142,0 8.008157,3.330111 8.102418,8.191292 -0.0014,4.682086 -3.152362,8.19264 -8.102418,8.19264 z M 59.238615,40.381475 c -3.23989,3.69369 -5.016039,7.204244 -5.016039,11.256126 v 1.233474 H 43.095722 l -0.08887,-2.147807 c -0.270664,-4.593211 1.260406,-9.176995 5.310943,-13.947956 2.88035,-3.510553 5.223413,-6.432649 5.223413,-9.403221 0,-3.151016 -2.072399,-5.286703 -6.572694,-5.378272 -2.971919,0 -6.572696,1.093429 -8.914411,2.713375 l -3.05945,-9.807199 c 3.330111,-1.890609 8.641052,-3.688303 15.033304,-3.688303 11.883637,0 17.164955,6.572694 17.164955,14.04491 0,6.840665 -4.533962,11.343654 -7.954294,15.124873 z"
     id="path3"
     inkscape:connector-curvature="0"
     style="fill:#451515;fill-opacity:1" /></svg>