<?xml version="1.0" encoding="UTF-8" standalone="no"?>
<!-- Generator: Adobe Illustrator 16.0.0, SVG Export Plug-In . SVG Version: 6.00 Build 0)  -->

<svg
   xmlns:dc="http://purl.org/dc/elements/1.1/"
   xmlns:cc="http://creativecommons.org/ns#"
   xmlns:rdf="http://www.w3.org/1999/02/22-rdf-syntax-ns#"
   xmlns:svg="http://www.w3.org/2000/svg"
   xmlns="http://www.w3.org/2000/svg"
   xmlns:sodipodi="http://sodipodi.sourceforge.net/DTD/sodipodi-0.dtd"
   xmlns:inkscape="http://www.inkscape.org/namespaces/inkscape"
   version="1.1"
   id="Layer_1"
   x="0px"
   y="0px"
   width="100px"
   height="99.777px"
   viewBox="-0.241 -1.031 100 99.777"
   enable-background="new -0.241 -1.031 100 99.777"
   xml:space="preserve"
   inkscape:version="0.48.4 r9939"
   sodipodi:docname="scene.svg"><metadata
     id="metadata15"><rdf:RDF><cc:Work
         rdf:about=""><dc:format>image/svg+xml</dc:format><dc:type
           rdf:resource="http://purl.org/dc/dcmitype/StillImage" /></cc:Work></rdf:RDF></metadata><defs
     id="defs13" /><sodipodi:namedview
     pagecolor="#ffffff"
     bordercolor="#666666"
     borderopacity="1"
     objecttolerance="10"
     gridtolerance="10"
     guidetolerance="10"
     inkscape:pageopacity="0"
     inkscape:pageshadow="2"
     inkscape:window-width="1920"
     inkscape:window-height="1019"
     id="namedview11"
     showgrid="true"
     inkscape:zoom="8.508975"
     inkscape:cx="60.704328"
     inkscape:cy="35.785744"
     inkscape:window-x="0"
     inkscape:window-y="26"
     inkscape:window-maximized="1"
     inkscape:current-layer="Layer_1"><inkscape:grid
       type="xygrid"
       id="grid3000" /></sodipodi:namedview><path
     style="font-size:medium;font-style:normal;font-variant:normal;font-weight:normal;font-stretch:normal;text-indent:0;text-align:start;text-decoration:none;line-height:normal;letter-spacing:normal;word-spacing:normal;text-transform:none;direction:ltr;block-progression:tb;writing-mode:lr-tb;text-anchor:start;baseline-shift:baseline;color:#000000;fill:#451515;fill-opacity:1;stroke:none;stroke-width:3;marker:none;visibility:visible;display:inline;overflow:visible;enable-background:accumulate;font-family:Sans;-inkscape-font-specification:Sans"
     d="M 21.03125,0 C 12.539966,0 5.625,6.914966 5.625,15.40625 c 0,8.491284 6.914966,15.40625 15.40625,15.40625 8.491284,0 15.40625,-6.914966 15.40625,-15.40625 C 36.4375,6.914966 29.522534,0 21.03125,0 z m 0,3 c 6.869964,0 12.40625,5.5362864 12.40625,12.40625 0,6.869964 -5.536286,12.40625 -12.40625,12.40625 C 14.161286,27.8125 8.625,22.276214 8.625,15.40625 8.625,8.5362864 14.161286,3 21.03125,3 z M 73.1875,22.5 c -3.274772,0.174949 -5.5,2.8125 -5.5,2.8125 L 47.125,52 c 4.114,2.9 12.23075,8.657 13.59375,9.75 3.394,2.72 0.28125,6.09375 0.28125,6.09375 0,0 -13.646,11.67725 -15.25,13.28125 -1.604,1.604 0,3.09375 0,3.09375 l 26.28125,15.5625 c 0,0 15.684535,-2.116192 22.96875,-5.00425 1.806818,-0.71637 5,-3 5,-3 l 0,-41.027 c 0,0 -14.272,-19.0855 -20.625,-25.4375 -1.985625,-1.985625 -3.877302,-2.72718 -5.53125,-2.8125 -0.227418,-0.01173 -0.437932,-0.01166 -0.65625,0 z M 29.28125,42.8125 c -0.192329,-0.0026 -0.382101,0.01415 -0.5625,0.03125 C 26.313428,43.071729 25,44.90625 25,44.90625 L 0,71.28125 0,91.777 c 0,0 3.1572523,2.381892 5,3 14.829281,4.974154 46.65625,5.00425 46.65625,5.00425 -2.655,-2.907 -7.2505,-7.87025 -10.1875,-10.78125 -5.204,-5.158 0,-9 0,-9 0,0 11.24225,-9.19275 15.28125,-12.84375 3.265,-2.952 0,-5.25 0,-5.25 L 45.6875,53.875 l 0,0.03125 c 0,0 -7.496,-5.814 -11.5,-9 -1.925109,-1.532016 -3.559945,-2.07562 -4.90625,-2.09375 z"
     transform="translate(-0.241,-1.0310002)"
     id="circle3"
     inkscape:connector-curvature="0"
     sodipodi:nodetypes="sssssssssssccccsccscccsssscccscsccccccs" /></svg>